<svg width="55" height="55" viewBox="0 0 55 55" fill="none" xmlns="http://www.w3.org/2000/svg">
<path d="M27.5 13.75H16.0417V25.2083H27.5V13.75Z" fill="black"/>
<path d="M11.4583 13.75H0V25.2083H11.4583V13.75Z" fill="black"/>
<path d="M11.4583 25.2083H0V36.6666H11.4583V25.2083Z" fill="black"/>
<path d="M41.25 27.5H29.7917V38.9583H41.25V27.5Z" fill="black"/>
<path d="M41.25 43.5417H29.7917V55.0001H41.25V43.5417Z" fill="black"/>
<path d="M29.7916 43.5417H18.3333V55.0001H29.7916V43.5417Z" fill="black"/>
<path d="M13.75 11.4583V0C6.14167 0 0 6.14167 0 13.75H11.4583C11.4583 12.4972 12.4972 11.4583 13.75 11.4583Z" fill="black"/>
<path d="M27.5 25.2083H16.0417C16.0417 32.8166 22.1834 38.9583 29.7917 38.9583V27.4999C28.5389 27.4999 27.5 26.4916 27.5 25.2083Z" fill="black"/>
<path d="M13.75 11.4583V0C21.3583 0 27.5 6.14167 27.5 13.75H16.0417C16.0417 12.4972 15.0028 11.4583 13.75 11.4583Z" fill="black"/>
<path d="M43.5417 41.25H55C55 33.6417 48.8583 27.5 41.25 27.5V38.9583C42.5028 38.9583 43.5417 39.9972 43.5417 41.25Z" fill="black"/>
<path d="M43.5417 41.25H55C55 48.8583 48.8583 55 41.25 55V43.5417C42.5028 43.5417 43.5417 42.5333 43.5417 41.25Z" fill="black"/>
<path d="M12.375 44H0V55H12.375V44Z" fill="black"/>
</svg>
